<?xml version="1.0" standalone="no"?>
<!DOCTYPE svg PUBLIC "-//W3C//DTD SVG 20010904//EN"
 "http://www.w3.org/TR/2001/REC-SVG-20010904/DTD/svg10.dtd">
<svg version="1.0" xmlns="http://www.w3.org/2000/svg"
 width="800.000000pt" height="800.000000pt" viewBox="0 0 800.000000 800.000000"
 preserveAspectRatio="xMidYMid meet">
<metadata>
Created by potrace 1.11, written by Peter Selinger 2001-2013
</metadata>
<g transform="translate(0.000000,800.000000) scale(0.100000,-0.100000)"
fill="#000000" stroke="none">
<path d="M0 7745 c0 -140 3 -255 7 -255 13 0 125 71 188 119 109 83 245 231
319 349 l26 42 -270 0 -270 0 0 -255z"/>
<path d="M1455 7980 c-310 -66 -570 -222 -772 -465 -261 -315 -359 -751 -257
-1154 147 -582 657 -990 1257 -1005 219 -6 501 63 659 161 21 13 40 23 44 23
18 0 187 134 258 205 166 166 266 334 340 571 41 134 60 362 42 514 -51 442
-329 838 -723 1031 -59 29 -117 56 -128 60 -11 4 -33 12 -50 18 -110 40 -203
53 -390 57 -158 2 -205 0 -280 -16z"/>
<path d="M2876 7958 c96 -153 255 -313 405 -410 470 -303 1080 -279 1522 59
114 88 246 232 321 351 l26 42 -1150 0 -1150 0 26 -42z"/>
<path d="M5859 7993 c-5 -41 -3 -153 3 -213 51 -501 373 -922 848 -1108 178
-70 395 -98 610 -78 67 6 97 11 180 30 128 29 334 124 441 202 l59 44 0 565 0
565 -1070 0 c-588 0 -1070 -3 -1071 -7z"/>
<path d="M4715 7282 c-321 -29 -602 -156 -822 -370 -425 -413 -528 -1030 -260
-1556 331 -649 1130 -907 1781 -574 392 202 668 602 713 1033 26 260 -15 489
-132 731 -181 373 -548 649 -958 718 -87 15 -255 25 -322 18z"/>
<path d="M7920 6473 c-441 -69 -807 -331 -1003 -718 -291 -574 -121 -1276 404
-1665 108 -80 309 -180 416 -205 84 -21 162 -36 208 -41 l55 -5 0 1320 0 1321
-27 -1 c-16 -1 -39 -3 -53 -6z"/>
<path d="M0 4310 c0 -1094 2 -1300 14 -1300 44 0 238 68 341 120 230 115 412
284 547 510 41 70 101 199 100 217 0 4 3 13 8 18 11 13 45 152 60 244 32 193
8 439 -62 636 -124 352 -432 666 -778 794 -62 23 -198 61 -217 61 -11 0 -13
-256 -13 -1300z"/>
<path d="M2595 4869 c-97 -10 -157 -19 -164 -24 -4 -2 -18 -6 -32 -8 -46 -9
-144 -39 -153 -48 -6 -5 -16 -9 -24 -9 -18 0 -155 -69 -224 -114 -132 -84
-261 -206 -361 -340 -58 -79 -152 -258 -181 -346 -132 -396 -73 -830 157
-1170 258 -380 681 -597 1138 -583 539 17 1020 365 1205 873 63 174 95 428 73
580 -4 25 -10 65 -13 90 -24 182 -138 441 -260 592 -199 246 -438 401 -730
472 -145 36 -301 48 -431 35z"/>
<path d="M5730 4192 c-465 -34 -886 -315 -1092 -730 -131 -262 -170 -521 -123
-817 71 -450 406 -853 845 -1018 224 -84 508 -104 740 -51 248 56 461 170 637
342 264 258 400 571 407 937 3 161 -35 372 -90 492 -8 17 -14 34 -14 38 0 4
-16 38 -34 75 -183 358 -500 608 -890 700 -110 26 -278 40 -386 32z"/>
<path d="M7908 3078 c-142 -142 -230 -274 -321 -488 -26 -59 -66 -241 -75
-331 -31 -338 63 -668 267 -934 25 -33 84 -98 131 -144 l85 -84 3 517 c1 284
1 749 0 1033 l-3 517 -87 -86z"/>
<path d="M417 2644 c-1 -1 -33 -4 -72 -8 -79 -7 -218 -38 -291 -65 l-49 -17 0
-1234 0 -1234 49 -17 c143 -52 222 -63 436 -64 180 0 216 3 295 23 336 84 612
273 801 549 115 168 199 394 221 593 6 64 7 281 0 310 -2 8 -7 38 -11 65 -19
126 -84 305 -156 431 -65 112 -129 194 -233 296 -241 236 -563 368 -905 372
-46 1 -84 1 -85 0z"/>
<path d="M3390 1892 c-471 -35 -886 -314 -1099 -740 -171 -342 -179 -780 -20
-1125 l12 -27 1197 0 1197 0 12 28 c69 148 112 347 115 527 2 76 -16 246 -33
310 -53 210 -122 357 -240 510 -59 78 -204 219 -278 272 -179 128 -398 211
-626 239 -56 6 -187 10 -237 6z"/>
<path d="M6435 1048 c-237 -28 -421 -93 -603 -212 -250 -163 -458 -442 -537
-718 -14 -51 -28 -99 -30 -106 -4 -9 260 -12 1294 -12 l1299 0 -5 23 c-12 55
-66 212 -91 264 -105 221 -261 402 -468 546 -62 42 -235 127 -319 156 -157 52
-385 78 -540 59z"/>
</g>
</svg>
